<?xml version="1.0" encoding="utf-8"?>
<!-- Generator: Adobe Illustrator 18.0.0, SVG Export Plug-In . SVG Version: 6.00 Build 0)  -->
<!DOCTYPE svg PUBLIC "-//W3C//DTD SVG 1.1//EN" "http://www.w3.org/Graphics/SVG/1.1/DTD/svg11.dtd">
<svg version="1.1" xmlns="http://www.w3.org/2000/svg" xmlns:xlink="http://www.w3.org/1999/xlink" x="0px" y="0px"
	 viewBox="0 0 500 500" enable-background="new 0 0 500 500" xml:space="preserve">
<g id="bg" display="none">
	<rect x="-2515" y="-2515" display="inline" fill="#CCBCBC" width="4490" height="4490"/>
</g>
<g id="Layer_1">
	<g>
		<path fill="#FFFFFF" d="M410,135v230H90V135H410 M410,125H90c-5.5,0-10,4.5-10,10v230c0,5.5,4.5,10,10,10h320c5.5,0,10-4.5,10-10
			V135C420,129.5,415.5,125,410,125L410,125z"/>
	</g>
	<g>
		<line fill="none" stroke="#FFFFFF" stroke-width="10" stroke-miterlimit="10" x1="173" y1="231" x2="173" y2="309"/>
		<line fill="none" stroke="#FFFFFF" stroke-width="10" stroke-miterlimit="10" x1="211" y1="191" x2="211" y2="309"/>
		<line fill="none" stroke="#FFFFFF" stroke-width="10" stroke-miterlimit="10" x1="250" y1="246" x2="250" y2="309"/>
		<line fill="none" stroke="#FFFFFF" stroke-width="10" stroke-miterlimit="10" x1="289" y1="215" x2="289" y2="309"/>
		<line fill="none" stroke="#FFFFFF" stroke-width="10" stroke-miterlimit="10" x1="327" y1="238" x2="327" y2="309"/>
	</g>
</g>
</svg>
