<?xml version="1.0" encoding="utf-8"?>
<!-- Generator: Adobe Illustrator 18.0.0, SVG Export Plug-In . SVG Version: 6.00 Build 0)  -->
<!DOCTYPE svg PUBLIC "-//W3C//DTD SVG 1.1//EN" "http://www.w3.org/Graphics/SVG/1.1/DTD/svg11.dtd">
<svg version="1.1" xmlns="http://www.w3.org/2000/svg" xmlns:xlink="http://www.w3.org/1999/xlink" x="0px" y="0px"
	 viewBox="0 0 500 500" enable-background="new 0 0 500 500" xml:space="preserve">
<g id="bg" display="none">
	<rect x="-1475" y="-1475" display="inline" fill="#CCBCBC" width="4490" height="4490"/>
</g>
<g id="Layer_1">
	<g>
		<path fill="#FFFFFF" d="M430,108v227h-50.8h-10v10v36.3L309.9,337l-2.7-2H304L70,335c0,0,0,0,0,0c0,0,0,0,0,0l0-227c0,0,0,0,0,0
			H430 M338.2,255.4c19.1,0,34.7-15.6,34.7-34.7S357.3,186,338.2,186c-19.1,0-34.7,15.6-34.7,34.7S319,255.4,338.2,255.4
			 M250.8,255.4c19.1,0,34.7-15.6,34.7-34.7S269.9,186,250.8,186c-19.1,0-34.7,15.6-34.7,34.7S231.6,255.4,250.8,255.4 M163.4,255.4
			c19.1,0,34.7-15.6,34.7-34.7S182.5,186,163.4,186c-19.1,0-34.7,15.6-34.7,34.7S144.2,255.4,163.4,255.4 M430,98H70
			c-5.5,0-10,4.5-10,10v227c0,5.5,4.5,10,10,10h234l75.2,56.2V345H430c5.5,0,10-4.5,10-10V108C440,102.5,435.5,98,430,98L430,98z
			 M338.2,245.4c-13.6,0-24.7-11.1-24.7-24.7c0-13.6,11.1-24.7,24.7-24.7c13.6,0,24.7,11.1,24.7,24.7
			C362.9,234.4,351.8,245.4,338.2,245.4L338.2,245.4z M250.8,245.4c-13.6,0-24.7-11.1-24.7-24.7c0-13.6,11.1-24.7,24.7-24.7
			s24.7,11.1,24.7,24.7C275.5,234.4,264.4,245.4,250.8,245.4L250.8,245.4z M163.4,245.4c-13.6,0-24.7-11.1-24.7-24.7
			c0-13.6,11.1-24.7,24.7-24.7s24.7,11.1,24.7,24.7C188.1,234.4,177,245.4,163.4,245.4L163.4,245.4z"/>
	</g>
</g>
</svg>
