<?xml version="1.0" encoding="utf-8"?>
<!-- Generator: Adobe Illustrator 18.0.0, SVG Export Plug-In . SVG Version: 6.00 Build 0)  -->
<!DOCTYPE svg PUBLIC "-//W3C//DTD SVG 1.1//EN" "http://www.w3.org/Graphics/SVG/1.1/DTD/svg11.dtd">
<svg version="1.1" xmlns="http://www.w3.org/2000/svg" xmlns:xlink="http://www.w3.org/1999/xlink" x="0px" y="0px"
	 viewBox="0 0 500 500" enable-background="new 0 0 500 500" xml:space="preserve">
<g id="bg" display="none">
	<rect x="-3035" y="-1475" display="inline" fill="#CCBCBC" width="4490" height="4490"/>
</g>
<g id="Layer_1">
	<path fill="none" stroke="#FFFFFF" stroke-width="8" stroke-miterlimit="10" d="M203,232c-31.1,15.6-53,49.9-53,87v87.6h200V319
		c0-37.1-21.9-71.4-53-87"/>
	<g>
		<path fill="#FFFFFF" d="M250,101.5c38.7,0,70.3,31.5,70.3,70.3c0,38.7-31.5,70.3-70.3,70.3s-70.3-31.5-70.3-70.3
			C179.7,133,211.3,101.5,250,101.5 M250,93.5c-43.2,0-78.3,35-78.3,78.3s35,78.3,78.3,78.3s78.3-35,78.3-78.3S293.2,93.5,250,93.5
			L250,93.5z"/>
	</g>
</g>
</svg>
