<?xml version="1.0" encoding="utf-8"?>
<!-- Generator: Adobe Illustrator 18.0.0, SVG Export Plug-In . SVG Version: 6.00 Build 0)  -->
<!DOCTYPE svg PUBLIC "-//W3C//DTD SVG 1.1//EN" "http://www.w3.org/Graphics/SVG/1.1/DTD/svg11.dtd">
<svg version="1.1" xmlns="http://www.w3.org/2000/svg" xmlns:xlink="http://www.w3.org/1999/xlink" x="0px" y="0px"
	 viewBox="0 0 500 500" enable-background="new 0 0 500 500" xml:space="preserve">
<g id="bg" display="none">
	<rect x="-955" y="-1475" display="inline" fill="#CCBCBC" width="4490" height="4490"/>
</g>
<g id="Layer_1">
	<g>
		<path fill="#FFFFFF" d="M246.8,121.2c26.4,0,51.8,7.9,73.4,23c21.1,14.7,37.2,35.1,46.5,59l2.4,6.1l6.6,0.2
			c22,0.7,42.5,9.8,57.9,25.7c15.4,15.9,23.8,36.9,23.8,59c0,46.7-37.9,84.8-84.6,84.8H111.3c-37.9,0-68.8-31-68.8-69
			c0-18.1,7-35.3,19.6-48.2c12.6-12.9,29.5-20.3,47.5-20.7l8.5-0.2l1.2-8.5c4.2-30.5,19.3-58.6,42.5-79.1
			C185.4,132.6,215.5,121.2,246.8,121.2 M246.8,111.2c-70.2,0-128.2,52.1-137.4,119.8c-42.7,1-76.9,36.1-76.9,79
			c0,43.5,35.3,79,78.8,79h261.6c52.2,0,94.6-42.5,94.6-94.8c0-51.2-40.6-93-91.4-94.6C355.9,147.9,305.7,111.2,246.8,111.2
			L246.8,111.2z"/>
	</g>
</g>
</svg>
