<?xml version="1.0" encoding="utf-8"?>
<!-- Generator: Adobe Illustrator 18.0.0, SVG Export Plug-In . SVG Version: 6.00 Build 0)  -->
<!DOCTYPE svg PUBLIC "-//W3C//DTD SVG 1.1//EN" "http://www.w3.org/Graphics/SVG/1.1/DTD/svg11.dtd">
<svg version="1.1" xmlns="http://www.w3.org/2000/svg" xmlns:xlink="http://www.w3.org/1999/xlink" x="0px" y="0px"
	 viewBox="0 0 500 500" enable-background="new 0 0 500 500" xml:space="preserve">
<g id="bg" display="none">
	<rect x="-2515" y="-1475" display="inline" fill="#CCBCBC" width="4490" height="4490"/>
</g>
<g id="Layer_1">
	<g>
		<g>
			<path fill="#FFFFFF" d="M328,135l-10.4,245H182.5L172,135H328 M338.4,125H161.6l11.3,265h154.3L338.4,125L338.4,125z"/>
		</g>
		<line fill="none" stroke="#FFFFFF" stroke-width="10" stroke-miterlimit="10" x1="136" y1="128" x2="364" y2="128"/>
		<g>
			<path fill="#FFFFFF" d="M285.5,110v15h-70.9v-15H285.5 M293.5,102h-8h-70.9h-8v8v15v8h8h70.9h8v-8v-15V102L293.5,102z"/>
		</g>
		<line fill="none" stroke="#FFFFFF" stroke-width="8" stroke-miterlimit="10" x1="204.3" y1="168.1" x2="213" y2="348.7"/>
		<line fill="none" stroke="#FFFFFF" stroke-width="8" stroke-miterlimit="10" x1="250" y1="169" x2="250" y2="350"/>
		<line fill="none" stroke="#FFFFFF" stroke-width="8" stroke-miterlimit="10" x1="295.7" y1="168.1" x2="287" y2="348.7"/>
	</g>
</g>
</svg>
